<?xml version="1.0" standalone="no"?>
<!DOCTYPE svg PUBLIC "-//W3C//DTD SVG 20010904//EN"
 "http://www.w3.org/TR/2001/REC-SVG-20010904/DTD/svg10.dtd">
<svg version="1.0" xmlns="http://www.w3.org/2000/svg"
 width="512.000000pt" height="512.000000pt" viewBox="0 0 512.000000 512.000000"
 preserveAspectRatio="xMidYMid meet">
<metadata>
Created by potrace 1.11, written by Peter Selinger 2001-2013
</metadata>
<g transform="translate(0.000000,512.000000) scale(0.100000,-0.100000)"
fill="#000000" stroke="none">
<path d="M1323 5105 c-107 -33 -194 -117 -229 -222 l-21 -62 0 -2253 c0 -1910
2 -2261 14 -2308 28 -108 103 -192 212 -236 l56 -23 1195 -1 c1249 0 1235 0
1312 41 81 43 148 130 172 221 10 41 13 490 13 2307 0 2238 0 2256 -20 2311
-11 30 -27 66 -36 80 -28 45 -95 102 -151 129 l-55 26 -1210 2 c-984 1 -1218
-1 -1252 -12z m1631 -251 c19 -19 20 -25 3 -47 -11 -16 -44 -18 -397 -18 -356
-1 -385 1 -397 17 -17 23 -16 29 3 48 13 14 63 16 394 16 331 0 381 -2 394
-16z m852 -2069 c0 -982 -1 -1785 -2 -1785 -1 0 -9 12 -17 28 -8 15 -38 68
-67 117 -29 50 -62 106 -72 125 -11 19 -70 121 -131 225 -60 105 -119 206
-130 225 -10 19 -46 80 -78 136 -33 55 -59 105 -59 111 0 6 15 39 33 74 56
112 71 155 88 258 34 213 -11 415 -132 596 -131 196 -326 319 -569 361 -44 7
-170 13 -170 7 0 -7 231 -413 269 -473 62 -97 90 -184 86 -267 -9 -208 -185
-370 -389 -359 -82 5 -127 20 -195 64 -59 39 -90 77 -159 197 -26 44 -52 89
-59 100 -7 11 -16 27 -20 35 -4 8 -48 86 -99 174 l-93 158 -45 -93 c-68 -141
-90 -241 -88 -395 5 -369 271 -700 632 -787 69 -16 149 -26 215 -27 38 0 42
-3 66 -47 14 -27 65 -115 113 -196 47 -82 97 -167 109 -190 13 -23 57 -98 97
-167 40 -69 84 -145 98 -170 13 -25 28 -49 32 -55 4 -5 21 -36 39 -67 l32 -58
-913 0 -914 0 0 1965 0 1965 1246 0 1246 0 0 -1785z m-1152 -2296 c86 -59 102
-183 33 -257 -66 -71 -171 -77 -241 -13 -94 86 -67 234 54 287 40 18 115 10
154 -17z"/>
</g>
</svg>
